<?xml version="1.0" encoding="utf-8"?>
<?xml-stylesheet type="text/xsl" href="rss1.xsl"?>
<rss version="2.0" xmlns:atom="http://www.w3.org/2005/Atom" xmlns:content="http://purl.org/rss/1.0/modules/content/" xmlns:dc="http://purl.org/dc/elements/1.1/" xmlns:media="http://search.yahoo.com/mrss/">
<channel>
 <title>Getty</title>
 <link>http://www.gettyimg.com/</link>
 <atom:link href="http://www.gettyimg.com/" rel="self" type="application/rss+xml" />

 
                <item>
                <title><![CDATA[【Apple Music】WEB-RiP - Delia - Inimi Desenate (by KAZIBO) (1080p)]]></title>
                <link><![CDATA[https://sharemania.us/threads/delia-inimi-desenate-by-kazibo-1080p.249252/]]></link>
                <description><![CDATA[<article>
<blockquote class="messageText SelectQuoteContainer ugc baseHtml">
<img src="https://i.postimg.cc/02P7d95D/Delia-Inimi-Desenate-by-KAZIBO-mp4.jpg" class="bbCodeImage LbImage" alt="[​IMG]" data-url="https://i.postimg.cc/02P7d95D/Delia-Inimi-Desenate-by-KAZIBO-mp4.jpg" style=""><br>
<br>
<div class="bbCodeBlock bbCodeCode">
<div class="type">Code:</div>
<pre>General
Complete name                  : G:\Новая папка\Delia - Inimi Desenate (by KAZIBO).mp4
Format                         : MPEG-4
Format profile                 : Base Media
Codec ID                       : isom (isom/iso2/avc1/mp41)
File size                      : 161 MiB
Duration                       : 3 min 18 s
Overall bit rate               : 6 802 kb/s
Frame rate                     : 25.000 FPS
Movie name                     : Inimi desenate
Performer                      : Delia
Genre                          : Pop
ContentType                    : Music Video
Recorded date                  : 2021-09-10 07:00:00 UTC
Writing application            : Lavf56.30.100
Copyright                      : ℗ 2015 Cat Music / Kazibo Music

Video
ID                             : 1
Format                         : AVC
Format/Info                    : Advanced Video Codec
Format profile                 : High@L4
Format settings                : CABAC / 4 Ref Frames
Format settings, CABAC         : Yes
Format settings, Reference fra : 4 frames
Format settings, Slice count   : 8 slices per frame
Codec ID                       : avc1
Codec ID/Info                  : Advanced Video Coding
Duration                       : 3 min 18 s
Bit rate                       : 6 546 kb/s
Width                          : 1 920 pixels
Height                         : 1 080 pixels
Display aspect ratio           : 16:9
Frame rate mode                : Constant
Frame rate                     : 25.000 FPS
Color space                    : YUV
Chroma subsampling             : 4:2:0
Bit depth                      : 8 bits
Scan type                      : Progressive
Bits/(Pixel*Frame)             : 0.126
Stream size                    : 155 MiB (96%)
Color range                    : Limited
Color primaries                : BT.709
Transfer characteristics       : BT.709
Matrix coefficients            : BT.709
Codec configuration box        : avcC

Audio
ID                             : 2
Format                         : AAC LC
Format/Info                    : Advanced Audio Codec Low Complexity
Codec ID                       : mp4a-40-2
Duration                       : 3 min 18 s
Duration_LastFrame             : -10 ms
Bit rate mode                  : Constant
Bit rate                       : 251 kb/s
Channel(s)                     : 2 channels
Channel layout                 : L R
Sampling rate                  : 48.0 kHz
Frame rate                     : 46.875 FPS (1024 SPF)
Compression mode               : Lossy
Stream size                    : 5.92 MiB (4%)
Default                        : Yes
Alternate group                : 1

</pre>
</div>
<div class="bbCodeBlock bbCodeVfcHH HiddenContent">
<div class="attribution type">Hidden Content:</div>
<blockquote>You must either reply or click 'Like' to see the hidden information contained here.</blockquote>
</div>
<div class="messageTextEndMarker">&nbsp;</div>
</blockquote>
</article>]]></description>
                <author><![CDATA[vitalya3]]></author>
                </item>

                
                <item>
                <title><![CDATA[【Albums (lossless)】ALAC - Frankee - The Good, The Bad, The Ugly (Explicit) [Apple Music Rip]]]></title>
                <link><![CDATA[https://sharemania.us/threads/frankee-the-good-the-bad-the-ugly-explicit-apple-music-rip.249254/]]></link>
                <description><![CDATA[<article>
<blockquote class="messageText SelectQuoteContainer ugc baseHtml">
<div style="text-align: center"><img src="https://i.imgur.com/FFulFwG.jpeg" class="bbCodeImage LbImage" alt="[​IMG]" data-url="https://i.imgur.com/FFulFwG.jpeg" style=""> <br>
<br>
<span style="font-family: 'Verdana'"><span style="font-size: 12px">1. I Do Me<br>
2. How You Do<br>
3. In Love With Me<br>
4. I'm Leaving<br>
5. Gotta Man<br>
6. Who the Hell Are You<br>
7. Him<br>
8. I Told You So<br>
9. Hell No<br>
10. Don't Be Mad<br>
11. F.U.R.B. (F U Right Back)<br>
<br>
<div class="bbCodeBlock bbCodeVfcHH HiddenContent">
<div class="attribution type">Hidden Content:</div>
<blockquote>You must reply before you can see the hidden data contained here.</blockquote>
</div></span></span>​</div>
<div class="messageTextEndMarker">&nbsp;</div>
</blockquote>
</article>]]></description>
                <author><![CDATA[OhSnapItzTrey]]></author>
                </item>

                
                <item>
                <title><![CDATA[【Apple Music】WEB-RiP - Emma Muscat - Avec moi (feat. Biondo)(1080p)]]></title>
                <link><![CDATA[https://sharemania.us/threads/emma-muscat-avec-moi-feat-biondo-1080p.249253/]]></link>
                <description><![CDATA[<article>
<blockquote class="messageText SelectQuoteContainer ugc baseHtml">
<img src="https://i.postimg.cc/jqDRgFv5/Emma-Muscat-Avec-moi-feat-Biondo-mp4.jpg" class="bbCodeImage LbImage" alt="[​IMG]" data-url="https://i.postimg.cc/jqDRgFv5/Emma-Muscat-Avec-moi-feat-Biondo-mp4.jpg" style=""><br>
<br>
<div class="bbCodeBlock bbCodeCode">
<div class="type">Code:</div>
<pre>General
Complete name                  : G:\Новая папка\Emma Muscat - Avec moi (feat. Biondo).mp4
Format                         : MPEG-4
Format profile                 : Base Media
Codec ID                       : isom (isom/iso2/avc1/mp41)
File size                      : 141 MiB
Duration                       : 2 min 59 s
Overall bit rate               : 6 592 kb/s
Frame rate                     : 25.000 FPS
Movie name                     : Avec moi (feat. Biondo)
Performer                      : Emma Muscat
Genre                          : Pop
ContentType                    : Music Video
Recorded date                  : 2019-05-09 07:00:00 UTC
Writing application            : Lavf56.30.100
Copyright                      : ℗ 2019 Warner Records Inc./Warner Music Italy a Warner Music Group Company

Video
ID                             : 1
Format                         : AVC
Format/Info                    : Advanced Video Codec
Format profile                 : High@L4.1
Format settings                : CABAC / 5 Ref Frames
Format settings, CABAC         : Yes
Format settings, Reference fra : 5 frames
Format settings, Slice count   : 8 slices per frame
Codec ID                       : avc1
Codec ID/Info                  : Advanced Video Coding
Duration                       : 2 min 59 s
Bit rate                       : 6 336 kb/s
Width                          : 1 920 pixels
Height                         : 820 pixels
Display aspect ratio           : 2.35:1
Frame rate mode                : Constant
Frame rate                     : 25.000 FPS
Color space                    : YUV
Chroma subsampling             : 4:2:0
Bit depth                      : 8 bits
Scan type                      : Progressive
Bits/(Pixel*Frame)             : 0.161
Stream size                    : 136 MiB (96%)
Color range                    : Limited
Color primaries                : BT.709
Transfer characteristics       : BT.709
Matrix coefficients            : BT.709
Codec configuration box        : avcC

Audio
ID                             : 2
Format                         : AAC LC
Format/Info                    : Advanced Audio Codec Low Complexity
Codec ID                       : mp4a-40-2
Duration                       : 2 min 59 s
Duration_LastFrame             : -15 ms
Bit rate mode                  : Constant
Bit rate                       : 252 kb/s
Channel(s)                     : 2 channels
Channel layout                 : L R
Sampling rate                  : 48.0 kHz
Frame rate                     : 46.875 FPS (1024 SPF)
Compression mode               : Lossy
Stream size                    : 5.41 MiB (4%)
Default                        : Yes
Alternate group                : 1

</pre>
</div>
<div class="bbCodeBlock bbCodeVfcHH HiddenContent">
<div class="attribution type">Hidden Content:</div>
<blockquote>You must either reply or click 'Like' to see the hidden information contained here.</blockquote>
</div>
<div class="messageTextEndMarker">&nbsp;</div>
</blockquote>
</article>]]></description>
                <author><![CDATA[vitalya3]]></author>
                </item>

                </channel></rss>